<svg xmlns="http://www.w3.org/2000/svg" viewBox="0 0 512 512">
  <defs>
    <linearGradient id="sky" x1="0" y1="0" x2="0" y2="1">
      <stop offset="0" stop-color="#FCF3DE"/><stop offset="1" stop-color="#F2D59C"/>
    </linearGradient>
    <linearGradient id="lake" x1="0" y1="0" x2="0" y2="1">
      <stop offset="0" stop-color="#34B8C2"/><stop offset="1" stop-color="#0A7680"/>
    </linearGradient>
  </defs>
  <clipPath id="r"><rect width="512" height="512" rx="112"/></clipPath><g clip-path="url(#r)"><rect width="512" height="512" fill="url(#sky)"/>
  <circle cx="128" cy="138" r="42" fill="#E3A233"/>
  <path d="M-10 360 L70 262 L112 300 L170 214 L220 280 L262 236 L360 214 L410 250 L456 204 L522 290 L522 360 Z" fill="#6DB7BD"/>
  <path d="M8 364 L150 236 L186 254 L270 108 L300 150 L326 132 L424 270 L452 254 L520 364 Z" fill="#0A5A62"/>
  <path d="M270 108 L300 150 L326 132 L354 176 L334 168 L318 186 L300 166 L282 190 L264 170 L250 180 L240 160 Z" fill="#FFFFFF"/>
  <rect y="358" width="512" height="154" fill="url(#lake)"/>
  <path d="M150 358 L270 470 L424 358 Z" fill="#0A5A62" opacity=".22"/>
  <g fill="#083F45">
    <path d="M34 262 L62 364 L6 364 Z"/>
    <path d="M78 236 L112 364 L44 364 Z"/>
    <path d="M114 290 L136 364 L92 364 Z"/>
    <path d="M444 272 L470 364 L418 364 Z"/>
    <path d="M484 240 L516 364 L452 364 Z"/>
  </g>
  <rect x="168" y="398" width="116" height="8" rx="4" fill="#FFFFFF" opacity=".55"/>
  <rect x="306" y="428" width="78" height="8" rx="4" fill="#FFFFFF" opacity=".4"/>
  <rect x="204" y="458" width="60" height="8" rx="4" fill="#FFFFFF" opacity=".3"/>
</g></svg>
